STARTFONT 2.1
FONT -sun-chevaraoutline-medium-r-normal--17-170-75-75-p-142-adobe-fontspecific
SIZE 17 75 75
FONTBOUNDINGBOX 35 23 -5 -5

STARTPROPERTIES 28
FOUNDRY "sun"
FAMILY_NAME "chevaraoutline"
WEIGHT_NAME "medium"
SLANT "r"
SETWIDTH_NAME "normal"
ADD_STYLE_NAME ""
PIXEL_SIZE 18
POINT_SIZE 170
RESOLUTION_X 75
RESOLUTION_Y 75
SPACING "p"
AVERAGE_WIDTH 142
CHARSET_REGISTRY "adobe"
CHARSET_ENCODING "fontspecific"
COPYRIGHT "© 1999 Sun Microsystems, Inc."
RAW_PIXELSIZE 1000
RAW_POINTSIZE 964
RAW_ASCENT 1047
RAW_DESCENT 285
RAW_AVERAGE_WIDTH 8051
FACE_NAME "ChevaraOutlineNormal¿ŸD@5"
_XMBDFED_INFO "Edited with xmbdfed 2.4."
WEIGHT 10
X_HEIGHT -1
QUAD_WIDTH 14
DEFAULT_CHAR 4
FONT_DESCENT 5
FONT_ASCENT 18
ENDPROPERTIES

CHARS 202

STARTCHAR char32
ENCODING 32
SWIDTH 45 0
DWIDTH 9 0
BBX 0 0 0 0
BITMAP
ENDCHAR

STARTCHAR char33
ENCODING 33
SWIDTH 35 0
DWIDTH 7 0
BBX 4 13 3 0
BITMAP
60
90
90
90
B0
A0
60
60
20
60
90
B0
60
ENDCHAR

STARTCHAR char34
ENCODING 34
SWIDTH 45 0
DWIDTH 9 0
BBX 7 5 2 8
BITMAP
44
AA
EE
22
44
ENDCHAR

STARTCHAR char35
ENCODING 35
SWIDTH 4 0
DWIDTH 11 0
BBX 8 13 1 0
BITMAP
12
32
32
22
FF
24
24
24
FF
44
44
4C
48
ENDCHAR

STARTCHAR char36
ENCODING 36
SWIDTH 39 0
DWIDTH 18 0
BBX 15 16 4 -2
BITMAP
0240
0E40
1FC4
226C
E254
B24C
8FC4
827C
7E46
83C2
C27A
A24A
BE4E
C3F8
0240
0240
ENDCHAR

STARTCHAR char37
ENCODING 37
SWIDTH 23 0
DWIDTH 25 0
BBX 24 12 4 0
BITMAP
3F0080
528100
924300
924238
9244CC
52894A
339249
1E3249
002249
004149
0081CA
00807C
ENDCHAR

STARTCHAR char38
ENCODING 38
SWIDTH 39 0
DWIDTH 18 0
BBX 16 12 4 0
BITMAP
1FE0
1420
1620
1340
099F
19D6
74D4
B268
9130
9930
4998
3E7F
ENDCHAR

STARTCHAR char39
ENCODING 39
SWIDTH 25 0
DWIDTH 5 0
BBX 4 5 1 8
BITMAP
20
40
B0
90
70
ENDCHAR

STARTCHAR char40
ENCODING 40
SWIDTH 40 0
DWIDTH 8 0
BBX 7 13 2 0
BITMAP
06
1C
28
58
58
98
98
98
98
58
28
38
0C
ENDCHAR

STARTCHAR char41
ENCODING 41
SWIDTH 40 0
DWIDTH 8 0
BBX 6 13 1 0
BITMAP
C0
30
28
2C
24
24
24
24
24
24
28
30
60
ENDCHAR

STARTCHAR char42
ENCODING 42
SWIDTH 30 0
DWIDTH 6 0
BBX 6 5 1 7
BITMAP
20
F8
20
50
50
ENDCHAR

STARTCHAR char43
ENCODING 43
SWIDTH 9 0
DWIDTH 12 0
BBX 10 10 3 0
BITMAP
0800
0800
0800
0800
FFC0
0800
0800
0800
0800
0800
ENDCHAR

STARTCHAR char44
ENCODING 44
SWIDTH 25 0
DWIDTH 5 0
BBX 4 5 1 -2
BITMAP
F0
90
D0
20
60
ENDCHAR

STARTCHAR char45
ENCODING 45
SWIDTH 45 0
DWIDTH 9 0
BBX 7 1 2 5
BITMAP
FE
ENDCHAR

STARTCHAR char46
ENCODING 46
SWIDTH 25 0
DWIDTH 5 0
BBX 4 4 1 0
BITMAP
60
90
90
70
ENDCHAR

STARTCHAR char47
ENCODING 47
SWIDTH 50 0
DWIDTH 10 0
BBX 10 12 2 0
BITMAP
0080
0100
0100
0200
0400
0800
0800
1000
2000
4000
4000
8000
ENDCHAR

STARTCHAR char48
ENCODING 48
SWIDTH 34 0
DWIDTH 17 0
BBX 15 12 3 0
BITMAP
1FF0
2448
4C4C
4C26
8C26
8C26
8C26
8C26
4C24
2C2C
1658
0FE0
ENDCHAR

STARTCHAR char49
ENCODING 49
SWIDTH 4 0
DWIDTH 11 0
BBX 10 13 2 0
BITMAP
0200
1E00
E200
2200
1200
1200
1200
1200
1200
1200
1200
1200
FFC0
ENDCHAR

STARTCHAR char50
ENCODING 50
SWIDTH 24 0
DWIDTH 15 0
BBX 13 12 3 0
BITMAP
7FF0
4118
F118
8918
8930
7260
0780
0808
3FF8
C018
8018
7FF8
ENDCHAR

STARTCHAR char51
ENCODING 51
SWIDTH 29 0
DWIDTH 16 0
BBX 13 12 3 0
BITMAP
7FF0
9098
9098
7098
0130
0FE0
20B8
D098
9098
9098
6098
3FE0
ENDCHAR

STARTCHAR char52
ENCODING 52
SWIDTH 29 0
DWIDTH 16 0
BBX 14 13 3 0
BITMAP
0020
00E0
0120
0220
0E20
1220
2220
4220
4220
FE3C
0220
0220
0FF8
ENDCHAR

STARTCHAR char53
ENCODING 53
SWIDTH 24 0
DWIDTH 15 0
BBX 13 13 3 0
BITMAP
3038
3FF8
4070
7F80
4000
5F80
60F0
0098
6098
9098
9098
60B0
3FE0
ENDCHAR

STARTCHAR char54
ENCODING 54
SWIDTH 29 0
DWIDTH 16 0
BBX 14 12 3 0
BITMAP
1FF0
2448
4C68
4C30
8FE0
8C38
8C2C
8C24
4C24
2C2C
1C28
0FF0
ENDCHAR

STARTCHAR char55
ENCODING 55
SWIDTH 24 0
DWIDTH 15 0
BBX 13 12 3 0
BITMAP
7FF8
4018
4030
FFE0
80C0
01C0
0280
0580
0900
1300
1300
1F00
ENDCHAR

STARTCHAR char56
ENCODING 56
SWIDTH 29 0
DWIDTH 16 0
BBX 13 12 4 0
BITMAP
7FE0
A010
B810
9E10
83E0
40F0
7830
8718
80C8
8028
4030
3FE0
ENDCHAR

STARTCHAR char57
ENCODING 57
SWIDTH 29 0
DWIDTH 16 0
BBX 14 12 3 0
BITMAP
3FE0
4850
9848
984C
984C
484C
3CCC
1F4C
2C48
4458
6470
1FC0
ENDCHAR

STARTCHAR char58
ENCODING 58
SWIDTH 35 0
DWIDTH 7 0
BBX 4 9 3 0
BITMAP
60
B0
90
60
00
60
90
90
60
ENDCHAR

STARTCHAR char59
ENCODING 59
SWIDTH 35 0
DWIDTH 7 0
BBX 4 11 3 -2
BITMAP
60
90
B0
60
00
60
B0
90
F0
20
40
ENDCHAR

STARTCHAR char60
ENCODING 60
SWIDTH 9 0
DWIDTH 12 0
BBX 9 9 1 0
BITMAP
0080
0700
1C00
7000
8000
6000
1C00
0700
0180
ENDCHAR

STARTCHAR char61
ENCODING 61
SWIDTH 9 0
DWIDTH 12 0
BBX 12 4 2 3
BITMAP
FFF0
0000
0000
FFF0
ENDCHAR

STARTCHAR char62
ENCODING 62
SWIDTH 9 0
DWIDTH 12 0
BBX 9 9 1 0
BITMAP
8000
6000
1C00
0700
0180
0700
1C00
7000
8000
ENDCHAR

STARTCHAR char63
ENCODING 63
SWIDTH 4 0
DWIDTH 11 0
BBX 9 12 2 0
BITMAP
7F00
F280
9280
9480
7880
0900
0E00
0800
1800
2400
2400
3C00
ENDCHAR

STARTCHAR char64
ENCODING 64
SWIDTH 44 0
DWIDTH 19 0
BBX 12 13 3 0
BITMAP
0F80
30C0
4020
4F50
9990
B090
B090
A190
B320
9DC0
4020
2040
1F80
ENDCHAR

STARTCHAR char65
ENCODING 65
SWIDTH 44 0
DWIDTH 19 0
BBX 18 12 3 0
BITMAP
008000
014000
016000
022000
053000
051000
089800
088C00
1FC400
102600
702300
FCFF80
ENDCHAR

STARTCHAR char66
ENCODING 66
SWIDTH 44 0
DWIDTH 19 0
BBX 16 12 3 0
BITMAP
FFFE
1313
1313
1313
1312
13FC
1216
1213
1213
1213
1213
3FFC
ENDCHAR

STARTCHAR char67
ENCODING 67
SWIDTH 34 0
DWIDTH 17 0
BBX 14 12 4 0
BITMAP
3FFC
4C14
480C
9804
9804
9800
9800
9800
5804
4808
3C10
0FE0
ENDCHAR

STARTCHAR char68
ENCODING 68
SWIDTH 49 0
DWIDTH 20 0
BBX 17 12 4 0
BITMAP
FFFC00
241200
240B00
240980
240980
240980
240980
240980
240900
241300
241600
7FF800
ENDCHAR

STARTCHAR char69
ENCODING 69
SWIDTH 39 0
DWIDTH 18 0
BBX 16 12 3 0
BITMAP
1FFF
1305
1303
1311
1370
1390
1370
1311
1301
1307
1309
FFFF
ENDCHAR

STARTCHAR char70
ENCODING 70
SWIDTH 34 0
DWIDTH 17 0
BBX 16 12 3 0
BITMAP
3FFF
1305
1303
1311
1370
1390
1370
1310
1300
1300
1300
FFC0
ENDCHAR

STARTCHAR char71
ENCODING 71
SWIDTH 49 0
DWIDTH 20 0
BBX 18 12 4 0
BITMAP
1FFE00
640A00
4C0400
980200
980000
980000
987F80
981300
481200
4C1200
361200
0FFF00
ENDCHAR

STARTCHAR char72
ENCODING 72
SWIDTH 8 0
DWIDTH 22 0
BBX 20 12 4 0
BITMAP
FFBFF0
220880
220880
220880
220880
23F880
220880
220880
220880
220880
220880
FF2FC0
ENDCHAR

STARTCHAR char73
ENCODING 73
SWIDTH 9 0
DWIDTH 12 0
BBX 10 12 2 0
BITMAP
1FC0
1200
1200
1200
1200
1200
1200
1200
1200
1200
1200
FFC0
ENDCHAR

STARTCHAR char74
ENCODING 74
SWIDTH 19 0
DWIDTH 14 0
BBX 13 12 2 0
BITMAP
1FF8
0240
0240
0240
0240
0240
0240
6240
9240
9240
E280
3F80
ENDCHAR

STARTCHAR char75
ENCODING 75
SWIDTH 8 0
DWIDTH 22 0
BBX 20 12 4 0
BITMAP
3E07F0
220600
220800
221000
223000
22D800
238C00
224600
222300
221300
220980
FFBFF0
ENDCHAR

STARTCHAR char76
ENCODING 76
SWIDTH 39 0
DWIDTH 18 0
BBX 16 12 3 0
BITMAP
FFC0
1300
1300
1300
1300
1300
1300
1301
1301
1307
1309
7FFF
ENDCHAR

STARTCHAR char77
ENCODING 77
SWIDTH 23 0
DWIDTH 25 0
BBX 23 12 4 0
BITMAP
FF00FE
130198
198198
15C298
14C298
126498
113898
113898
109098
109098
30A098
FC47FE
ENDCHAR

STARTCHAR char78
ENCODING 78
SWIDTH 44 0
DWIDTH 19 0
BBX 18 12 3 0
BITMAP
3F0380
118100
1CC100
127100
111900
108D00
104700
102300
101100
100900
180500
FE0300
ENDCHAR

STARTCHAR char79
ENCODING 79
SWIDTH 49 0
DWIDTH 20 0
BBX 17 12 4 0
BITMAP
1FFC00
241200
4C1100
8C1180
8C1180
8C0980
8C0980
8C0980
4C0980
240B00
1E1600
0FF800
ENDCHAR

STARTCHAR char80
ENCODING 80
SWIDTH 44 0
DWIDTH 19 0
BBX 18 12 3 0
BITMAP
FFFF00
120580
1204C0
1204C0
120580
120B00
13FC00
120000
120000
120000
120000
FFC000
ENDCHAR

STARTCHAR char81
ENCODING 81
SWIDTH 49 0
DWIDTH 20 0
BBX 18 14 4 -2
BITMAP
1FFC00
241200
440900
4C0980
8C0980
8C0980
8C0980
8C6980
4C9100
257300
162640
0E23C0
03F8C0
000780
ENDCHAR

STARTCHAR char82
ENCODING 82
SWIDTH 44 0
DWIDTH 19 0
BBX 18 12 3 0
BITMAP
1F3F00
131180
131180
131180
137700
138800
134C00
134C00
132600
132200
131300
FFDFC0
ENDCHAR

STARTCHAR char83
ENCODING 83
SWIDTH 39 0
DWIDTH 18 0
BBX 15 12 4 0
BITMAP
3FEC
601C
B004
BE04
8FF0
403C
3806
47E2
401A
6006
7C06
C3F8
ENDCHAR

STARTCHAR char84
ENCODING 84
SWIDTH 39 0
DWIDTH 18 0
BBX 16 12 3 0
BITMAP
FFFF
B145
E143
C241
8241
0240
0240
0240
0240
0240
0240
1FF0
ENDCHAR

STARTCHAR char85
ENCODING 85
SWIDTH 44 0
DWIDTH 19 0
BBX 16 12 3 0
BITMAP
FFCF
2206
2202
2202
2202
2202
2202
2202
2202
2202
1B0C
07F0
ENDCHAR

STARTCHAR char86
ENCODING 86
SWIDTH 44 0
DWIDTH 19 0
BBX 19 13 3 -1
BITMAP
FFDFE0
130500
110200
098200
088400
04C400
046800
026800
013000
012000
00A000
00C000
004000
ENDCHAR

STARTCHAR char87
ENCODING 87
SWIDTH 34 0
DWIDTH 27 0
BBX 26 12 4 0
BITMAP
FFBFEFC0
13058300
0904C200
098AC200
048A6200
04C92400
02513400
02609800
01209000
01405000
00C05000
00C06000
ENDCHAR

STARTCHAR char88
ENCODING 88
SWIDTH 44 0
DWIDTH 19 0
BBX 19 12 3 0
BITMAP
FFDFC0
138400
098800
04D000
046000
023000
011800
028C00
044400
082600
382300
FE3FC0
ENDCHAR

STARTCHAR char89
ENCODING 89
SWIDTH 44 0
DWIDTH 19 0
BBX 18 12 3 0
BITMAP
FFDFC0
130700
118400
088800
08C800
047800
022000
022000
022000
022000
022000
07FC00
ENDCHAR

STARTCHAR char90
ENCODING 90
SWIDTH 29 0
DWIDTH 16 0
BBX 14 12 3 0
BITMAP
FFFC
E108
C110
8230
0460
08C0
1180
2188
4308
8638
8C48
FFF8
ENDCHAR

STARTCHAR char91
ENCODING 91
SWIDTH 45 0
DWIDTH 9 0
BBX 6 12 4 0
BITMAP
FC
A0
A0
A0
A0
A0
A0
A0
A0
A0
A0
E0
ENDCHAR

STARTCHAR char92
ENCODING 92
SWIDTH 25 0
DWIDTH 5 0
BBX 5 13 0 0
BITMAP
80
80
40
40
40
20
20
20
10
10
10
08
08
ENDCHAR

STARTCHAR char93
ENCODING 93
SWIDTH 45 0
DWIDTH 9 0
BBX 6 12 2 0
BITMAP
FC
24
24
24
24
24
24
24
24
24
24
FC
ENDCHAR

STARTCHAR char94
ENCODING 94
SWIDTH 0 0
DWIDTH 0 0
BBX 7 4 -3 13
BITMAP
38
6C
54
8C
ENDCHAR

STARTCHAR char95
ENCODING 95
SWIDTH 4 0
DWIDTH 11 0
BBX 10 1 0 -2
BITMAP
FFC0
ENDCHAR

STARTCHAR char96
ENCODING 96
SWIDTH 0 0
DWIDTH 0 0
BBX 4 3 -3 11
BITMAP
60
20
10
ENDCHAR

STARTCHAR char97
ENCODING 97
SWIDTH 29 0
DWIDTH 16 0
BBX 16 10 2 0
BITMAP
0100
0280
02C0
0640
0920
0920
1F90
1058
7048
FCFF
ENDCHAR

STARTCHAR char98
ENCODING 98
SWIDTH 29 0
DWIDTH 16 0
BBX 13 10 3 0
BITMAP
3FF0
2448
2448
24D8
2730
24D8
2448
2448
2448
7FF0
ENDCHAR

STARTCHAR char99
ENCODING 99
SWIDTH 19 0
DWIDTH 14 0
BBX 12 10 3 0
BITMAP
3FF0
4830
9010
9010
9000
9000
9010
5010
2860
1F80
ENDCHAR

STARTCHAR char100
ENCODING 100
SWIDTH 34 0
DWIDTH 17 0
BBX 15 10 3 0
BITMAP
FFF8
242C
2414
2412
2412
2412
2412
2414
2428
FFF0
ENDCHAR

STARTCHAR char101
ENCODING 101
SWIDTH 24 0
DWIDTH 15 0
BBX 13 10 3 0
BITMAP
3FF8
2438
2488
2580
2680
2580
2488
2418
2428
7FF8
ENDCHAR

STARTCHAR char102
ENCODING 102
SWIDTH 19 0
DWIDTH 14 0
BBX 13 10 3 0
BITMAP
FFF8
2818
2888
2980
2F80
2880
2880
2800
2800
7C00
ENDCHAR

STARTCHAR char103
ENCODING 103
SWIDTH 29 0
DWIDTH 16 0
BBX 15 10 3 0
BITMAP
1FF0
6830
4810
9000
9000
91FC
9048
5848
2C48
1FF8
ENDCHAR

STARTCHAR char104
ENCODING 104
SWIDTH 39 0
DWIDTH 18 0
BBX 17 10 3 0
BITMAP
FF7F80
242400
242400
242400
27E400
242400
242400
242400
242400
FF7F80
ENDCHAR

STARTCHAR char105
ENCODING 105
SWIDTH 50 0
DWIDTH 10 0
BBX 8 10 2 0
BITMAP
FF
24
24
24
24
24
24
24
24
3E
ENDCHAR

STARTCHAR char106
ENCODING 106
SWIDTH 4 0
DWIDTH 11 0
BBX 11 10 2 0
BITMAP
3FE0
0900
0900
0900
0900
0900
E900
A900
A900
7E00
ENDCHAR

STARTCHAR char107
ENCODING 107
SWIDTH 39 0
DWIDTH 18 0
BBX 17 10 3 0
BITMAP
3E1F80
241800
242000
244000
25E000
273000
249800
244C00
242600
FF7F80
ENDCHAR

STARTCHAR char108
ENCODING 108
SWIDTH 24 0
DWIDTH 15 0
BBX 13 10 3 0
BITMAP
3F00
2400
2400
2400
2400
2400
2408
2418
2468
7FF8
ENDCHAR

STARTCHAR char109
ENCODING 109
SWIDTH 3 0
DWIDTH 21 0
BBX 19 10 4 0
BITMAP
7C0F00
340D00
321500
2B1900
292900
25A900
24C900
228900
628900
F93FE0
ENDCHAR

STARTCHAR char110
ENCODING 110
SWIDTH 29 0
DWIDTH 16 0
BBX 15 10 3 0
BITMAP
7C1E
2308
3988
24C8
2268
2138
2098
2048
2038
F808
ENDCHAR

STARTCHAR char111
ENCODING 111
SWIDTH 29 0
DWIDTH 16 0
BBX 14 10 3 0
BITMAP
3FF0
2448
482C
8824
8824
8824
8824
444C
3458
0FE0
ENDCHAR

STARTCHAR char112
ENCODING 112
SWIDTH 29 0
DWIDTH 16 0
BBX 14 10 3 0
BITMAP
FFF8
2424
2424
2424
2438
27E0
2400
2400
2400
FF00
ENDCHAR

STARTCHAR char113
ENCODING 113
SWIDTH 29 0
DWIDTH 16 0
BBX 15 12 3 -2
BITMAP
3FF0
4848
482C
8824
8824
8824
89E4
47A8
349A
0FCE
0024
0018
ENDCHAR

STARTCHAR char114
ENCODING 114
SWIDTH 29 0
DWIDTH 16 0
BBX 14 10 3 0
BITMAP
3FF0
2448
2448
25F8
2640
2520
2520
2490
24D0
FE7C
ENDCHAR

STARTCHAR char115
ENCODING 115
SWIDTH 24 0
DWIDTH 15 0
BBX 13 10 3 0
BITMAP
3FF0
6070
B010
9F80
40F0
3C18
43C8
E028
B018
4FF0
ENDCHAR

STARTCHAR char116
ENCODING 116
SWIDTH 24 0
DWIDTH 15 0
BBX 14 10 2 0
BITMAP
FFFC
E28C
C284
8484
0480
0480
0480
0480
0480
1FE0
ENDCHAR

STARTCHAR char117
ENCODING 117
SWIDTH 29 0
DWIDTH 16 0
BBX 14 10 3 0
BITMAP
FF7C
2810
2810
2810
2810
2810
2810
2810
2C30
1FC0
ENDCHAR

STARTCHAR char118
ENCODING 118
SWIDTH 29 0
DWIDTH 16 0
BBX 16 10 2 0
BITMAP
FFBF
220C
1308
0908
0590
0490
02E0
0240
0140
0080
ENDCHAR

STARTCHAR char119
ENCODING 119
SWIDTH 8 0
DWIDTH 22 0
BBX 22 10 3 0
BITMAP
3C7C38
141610
121210
0B2B20
092920
05C5E0
048480
028280
028280
038300
ENDCHAR

STARTCHAR char120
ENCODING 120
SWIDTH 29 0
DWIDTH 16 0
BBX 17 10 2 0
BITMAP
3F1F80
131000
09A000
04C000
024000
022000
039000
049800
184C00
FF3F00
ENDCHAR

STARTCHAR char121
ENCODING 121
SWIDTH 29 0
DWIDTH 16 0
BBX 15 10 2 0
BITMAP
FF1C
1308
0910
0990
04E0
0240
0240
0240
0240
0FF0
ENDCHAR

STARTCHAR char122
ENCODING 122
SWIDTH 14 0
DWIDTH 13 0
BBX 11 10 3 0
BITMAP
FFE0
C260
84C0
0980
1100
2200
4420
88E0
9920
FFE0
ENDCHAR

STARTCHAR char123
ENCODING 123
SWIDTH 30 0
DWIDTH 6 0
BBX 4 15 1 -3
BITMAP
70
60
60
60
40
40
40
80
40
40
60
40
40
40
30
ENDCHAR

STARTCHAR char124
ENCODING 124
SWIDTH 25 0
DWIDTH 5 0
BBX 1 13 2 0
BITMAP
80
80
80
80
80
80
80
80
80
80
80
80
80
ENDCHAR

STARTCHAR char125
ENCODING 125
SWIDTH 30 0
DWIDTH 6 0
BBX 4 15 1 -3
BITMAP
C0
20
20
20
20
20
20
10
20
20
60
20
20
20
C0
ENDCHAR

STARTCHAR char126
ENCODING 126
SWIDTH 0 0
DWIDTH 0 0
BBX 10 4 -5 13
BITMAP
3840
6EC0
9DC0
8300
ENDCHAR

STARTCHAR char128
ENCODING 128
SWIDTH 34 0
DWIDTH 17 0
BBX 16 12 2 0
BITMAP
0FFF
1305
1203
2601
FFF1
2600
FFF0
2600
1601
1202
0F04
03F8
ENDCHAR

STARTCHAR char130
ENCODING 130
SWIDTH 25 0
DWIDTH 5 0
BBX 4 5 1 -2
BITMAP
F0
90
D0
20
60
ENDCHAR

STARTCHAR char131
ENCODING 131
SWIDTH 0 0
DWIDTH 0 0
BBX 7 4 -3 13
BITMAP
38
6C
54
8C
ENDCHAR

STARTCHAR char132
ENCODING 132
SWIDTH 45 0
DWIDTH 9 0
BBX 7 5 2 -2
BITMAP
44
AA
EE
22
44
ENDCHAR

STARTCHAR char133
ENCODING 133
SWIDTH 44 0
DWIDTH 19 0
BBX 14 2 2 0
BITMAP
C30C
C30C
ENDCHAR

STARTCHAR char134
ENCODING 134
SWIDTH 4 0
DWIDTH 11 0
BBX 9 9 2 2
BITMAP
1E00
0C00
C480
E580
9F80
E480
8C80
1600
1E00
ENDCHAR

STARTCHAR char136
ENCODING 136
SWIDTH 0 0
DWIDTH 0 0
BBX 5 3 -2 11
BITMAP
70
B0
B8
ENDCHAR

STARTCHAR char139
ENCODING 139
SWIDTH 30 0
DWIDTH 6 0
BBX 2 6 2 2
BITMAP
40
40
80
80
C0
40
ENDCHAR

STARTCHAR char140
ENCODING 140
SWIDTH 39 0
DWIDTH 28 0
BBX 25 12 5 0
BITMAP
1FFE7B00
24098180
44098080
4C098880
8C099800
8C09E800
8C099800
8C098880
4C098080
24098380
1E098C80
07FFFF80
ENDCHAR

STARTCHAR char142
ENCODING 142
SWIDTH 39 0
DWIDTH 18 0
BBX 0 0 0 0
BITMAP
ENDCHAR

STARTCHAR char144
ENCODING 144
SWIDTH 39 0
DWIDTH 18 0
BBX 0 0 0 0
BITMAP
ENDCHAR

STARTCHAR char145
ENCODING 145
SWIDTH 25 0
DWIDTH 5 0
BBX 4 4 1 8
BITMAP
40
B0
90
70
ENDCHAR

STARTCHAR char146
ENCODING 146
SWIDTH 25 0
DWIDTH 5 0
BBX 4 4 1 8
BITMAP
F0
D0
30
60
ENDCHAR

STARTCHAR char147
ENCODING 147
SWIDTH 45 0
DWIDTH 9 0
BBX 7 4 2 8
BITMAP
44
AA
AA
66
ENDCHAR

STARTCHAR char148
ENCODING 148
SWIDTH 45 0
DWIDTH 9 0
BBX 7 4 2 8
BITMAP
EE
EE
22
44
ENDCHAR

STARTCHAR char149
ENCODING 149
SWIDTH 30 0
DWIDTH 6 0
BBX 5 5 0 4
BITMAP
70
F8
F8
F8
70
ENDCHAR

STARTCHAR char150
ENCODING 150
SWIDTH 34 0
DWIDTH 17 0
BBX 14 1 3 5
BITMAP
FFFC
ENDCHAR

STARTCHAR char151
ENCODING 151
SWIDTH 9 0
DWIDTH 12 0
BBX 12 1 2 5
BITMAP
FFF0
ENDCHAR

STARTCHAR char152
ENCODING 152
SWIDTH 0 0
DWIDTH 0 0
BBX 8 3 -4 11
BITMAP
71
FD
8E
ENDCHAR

STARTCHAR char153
ENCODING 153
SWIDTH 23 0
DWIDTH 25 0
BBX 23 10 4 8
BITMAP
FF980E
8C9C1C
0C1C1C
0C142C
0C162C
0C124C
0C134C
0C118C
0C118C
1C389C
ENDCHAR

STARTCHAR char155
ENCODING 155
SWIDTH 30 0
DWIDTH 6 0
BBX 2 6 2 2
BITMAP
80
80
40
40
C0
80
ENDCHAR

STARTCHAR char156
ENCODING 156
SWIDTH 18 0
DWIDTH 24 0
BBX 21 10 4 0
BITMAP
3FFFD0
282418
482448
8824C0
882740
8824C0
882448
482418
342428
0FFFF8
ENDCHAR

STARTCHAR char159
ENCODING 159
SWIDTH 44 0
DWIDTH 19 0
BBX 16 17 3 0
BITMAP
0220
0550
0550
0320
0000
FFDF
2306
1184
0984
04C8
0270
0260
0160
0160
0160
0160
0FFC
ENDCHAR

STARTCHAR char160
ENCODING 160
SWIDTH 24 0
DWIDTH 15 0
BBX 0 0 0 0
BITMAP
ENDCHAR

STARTCHAR char161
ENCODING 161
SWIDTH 35 0
DWIDTH 7 0
BBX 5 12 1 0
BITMAP
60
50
50
20
20
20
60
50
90
98
90
70
ENDCHAR

STARTCHAR char162
ENCODING 162
SWIDTH 19 0
DWIDTH 14 0
BBX 12 14 3 -2
BITMAP
0100
0100
3EF0
4970
9110
9110
9100
9100
9110
5110
2960
1FC0
0100
0100
ENDCHAR

STARTCHAR char163
ENCODING 163
SWIDTH 34 0
DWIDTH 17 0
BBX 15 12 3 0
BITMAP
0FFC
1212
2612
2616
260C
E7F0
2600
2602
2602
261E
2612
FFFE
ENDCHAR

STARTCHAR char164
ENCODING 164
SWIDTH 0 0
DWIDTH 0 0
BBX 5 4 -1 13
BITMAP
70
60
40
80
ENDCHAR

STARTCHAR char165
ENCODING 165
SWIDTH 0 0
DWIDTH 0 0
BBX 6 4 -3 13
BITMAP
E4
74
58
78
ENDCHAR

STARTCHAR char166
ENCODING 166
SWIDTH 39 0
DWIDTH 18 0
BBX 0 0 0 0
BITMAP
ENDCHAR

STARTCHAR char167
ENCODING 167
SWIDTH 24 0
DWIDTH 15 0
BBX 12 19 3 -5
BITMAP
0020
0060
3FE0
6020
B020
9F80
41E0
2030
7F90
6050
B830
8FE0
4060
3C10
43D0
4050
6050
7860
C780
ENDCHAR

STARTCHAR char168
ENCODING 168
SWIDTH 0 0
DWIDTH 0 0
BBX 6 3 -3 11
BITMAP
EC
B4
EC
ENDCHAR

STARTCHAR char169
ENCODING 169
SWIDTH 8 0
DWIDTH 22 0
BBX 18 18 5 0
BITMAP
03F000
0C0C00
300300
200180
41F880
4608C0
840840
8C0040
8C0040
8C0040
8C0040
8C0040
C608C0
431080
61E180
300300
1C0E00
07F800
ENDCHAR

STARTCHAR char170
ENCODING 170
SWIDTH 0 0
DWIDTH 0 0
BBX 8 4 -4 13
BITMAP
42
AD
E9
26
ENDCHAR

STARTCHAR char171
ENCODING 171
SWIDTH 45 0
DWIDTH 9 0
BBX 7 6 2 3
BITMAP
24
48
90
88
44
22
ENDCHAR

STARTCHAR char172
ENCODING 172
SWIDTH 49 0
DWIDTH 20 0
BBX 18 8 3 0
BITMAP
FFFFC0
FFFFC0
000040
000040
000040
000040
000040
000040
ENDCHAR

STARTCHAR char174
ENCODING 174
SWIDTH 8 0
DWIDTH 22 0
BBX 18 18 5 0
BITMAP
03F000
0C0C00
100200
27F100
433880
431880
831840
833840
83C040
836040
837040
833040
C318C0
479C80
600180
300300
1C0E00
07F800
ENDCHAR

STARTCHAR char176
ENCODING 176
SWIDTH 4 0
DWIDTH 11 0
BBX 8 8 3 10
BITMAP
3E
42
81
81
81
43
66
1C
ENDCHAR

STARTCHAR char177
ENCODING 177
SWIDTH 24 0
DWIDTH 15 0
BBX 14 17 3 0
BITMAP
0200
0200
0200
0200
0200
0200
FFFC
0200
0200
0200
0200
0200
0200
0200
0000
0000
FFFC
ENDCHAR

STARTCHAR char179
ENCODING 179
SWIDTH 39 0
DWIDTH 18 0
BBX 0 0 0 0
BITMAP
ENDCHAR

STARTCHAR char180
ENCODING 180
SWIDTH 0 0
DWIDTH 0 0
BBX 4 3 -1 11
BITMAP
60
40
80
ENDCHAR

STARTCHAR char181
ENCODING 181
SWIDTH 39 0
DWIDTH 18 0
BBX 0 0 0 0
BITMAP
ENDCHAR

STARTCHAR char182
ENCODING 182
SWIDTH 14 0
DWIDTH 13 0
BBX 8 15 2 -3
BITMAP
7F
E2
E2
E2
E2
62
22
22
22
22
22
22
22
22
22
ENDCHAR

STARTCHAR char183
ENCODING 183
SWIDTH 25 0
DWIDTH 5 0
BBX 2 2 2 4
BITMAP
C0
C0
ENDCHAR

STARTCHAR char184
ENCODING 184
SWIDTH 0 0
DWIDTH 0 0
BBX 3 4 -1 -4
BITMAP
40
A0
60
40
ENDCHAR

STARTCHAR char185
ENCODING 185
SWIDTH 39 0
DWIDTH 18 0
BBX 0 0 0 0
BITMAP
ENDCHAR

STARTCHAR char186
ENCODING 186
SWIDTH 0 0
DWIDTH 0 0
BBX 10 4 -5 13
BITMAP
3840
6EC0
9DC0
8300
ENDCHAR

STARTCHAR char187
ENCODING 187
SWIDTH 45 0
DWIDTH 9 0
BBX 7 6 2 3
BITMAP
98
4C
24
22
44
98
ENDCHAR

STARTCHAR char188
ENCODING 188
SWIDTH 39 0
DWIDTH 18 0
BBX 0 0 0 0
BITMAP
ENDCHAR

STARTCHAR char191
ENCODING 191
SWIDTH 4 0
DWIDTH 11 0
BBX 10 12 2 0
BITMAP
0E00
0A00
0A00
0600
0400
3C00
4400
9F80
B240
A240
7180
3F00
ENDCHAR

STARTCHAR char192
ENCODING 192
SWIDTH 44 0
DWIDTH 19 0
BBX 18 17 3 0
BITMAP
038000
018000
008000
004000
008000
00C000
014000
016000
023000
053000
051800
089800
088C00
1FC400
102600
702300
FCFF80
ENDCHAR

STARTCHAR char193
ENCODING 193
SWIDTH 44 0
DWIDTH 19 0
BBX 18 17 3 0
BITMAP
007000
006000
00C000
008000
008000
00C000
014000
016000
023000
053000
051800
089800
088C00
1FC400
102600
702300
FCFF80
ENDCHAR

STARTCHAR char194
ENCODING 194
SWIDTH 44 0
DWIDTH 19 0
BBX 18 17 3 0
BITMAP
00E000
01B000
015000
027000
008000
00C000
014000
016000
023000
053000
051800
089800
088C00
1FC400
102600
702300
FCFF80
ENDCHAR

STARTCHAR char195
ENCODING 195
SWIDTH 44 0
DWIDTH 19 0
BBX 18 17 3 0
BITMAP
038400
06EC00
09F800
083000
008000
00C000
014000
016000
023000
053000
051800
089800
088C00
1FC400
102600
702300
FCFF80
ENDCHAR

STARTCHAR char196
ENCODING 196
SWIDTH 44 0
DWIDTH 19 0
BBX 18 17 3 0
BITMAP
022000
055000
077000
000000
008000
00C000
01C000
016000
023000
053000
051800
089800
088C00
1FC400
104600
702300
FEFFC0
ENDCHAR

STARTCHAR char197
ENCODING 197
SWIDTH 44 0
DWIDTH 19 0
BBX 18 17 3 0
BITMAP
00C000
012000
012000
00C000
008000
00C000
014000
016000
023000
053000
051800
089800
088C00
1FC400
102600
702300
FCFF80
ENDCHAR

STARTCHAR char198
ENCODING 198
SWIDTH 34 0
DWIDTH 27 0
BBX 24 12 4 0
BITMAP
001FFF
003307
005301
009311
011330
0213D0
041330
041311
0FF301
101307
701305
FE7FFF
ENDCHAR

STARTCHAR char199
ENCODING 199
SWIDTH 34 0
DWIDTH 17 0
BBX 14 16 4 -4
BITMAP
3FFC
4C14
480C
9804
9804
9800
9800
9800
5804
4808
3C10
0F60
0380
0280
0380
0100
ENDCHAR

STARTCHAR char200
ENCODING 200
SWIDTH 39 0
DWIDTH 18 0
BBX 16 17 3 0
BITMAP
0380
0380
0080
0080
0000
1FFF
130F
1303
1311
1370
1390
1370
1311
1301
1307
1309
FFFF
ENDCHAR

STARTCHAR char201
ENCODING 201
SWIDTH 39 0
DWIDTH 18 0
BBX 16 17 3 0
BITMAP
00E0
00E0
0080
0080
0000
1FFF
130F
1303
1311
1370
1390
1370
1311
1301
1307
1309
FFFF
ENDCHAR

STARTCHAR char202
ENCODING 202
SWIDTH 39 0
DWIDTH 18 0
BBX 16 17 3 0
BITMAP
01E0
01A0
02A0
0270
0000
1FFF
130F
1303
1311
1370
1390
1370
1311
1301
1307
1309
FFFF
ENDCHAR

STARTCHAR char203
ENCODING 203
SWIDTH 39 0
DWIDTH 18 0
BBX 16 17 3 0
BITMAP
0220
0550
0750
0120
0000
1FFF
130F
1303
1311
1330
13D0
1330
1311
1301
130F
1309
FFFF
ENDCHAR

STARTCHAR char204
ENCODING 204
SWIDTH 9 0
DWIDTH 12 0
BBX 10 17 2 0
BITMAP
3800
1C00
0400
0400
0000
1FC0
1200
1200
1200
1200
1200
1200
1200
1200
1200
1200
FFC0
ENDCHAR

STARTCHAR char205
ENCODING 205
SWIDTH 9 0
DWIDTH 12 0
BBX 10 17 2 0
BITMAP
0700
0600
0400
0400
0000
1FC0
1200
1200
1200
1200
1200
1200
1200
1200
1200
1200
FFC0
ENDCHAR

STARTCHAR char206
ENCODING 206
SWIDTH 9 0
DWIDTH 12 0
BBX 10 17 2 0
BITMAP
0E00
1600
1500
1380
0000
1FC0
1200
1200
1200
1200
1200
1200
1200
1200
1200
1200
FFC0
ENDCHAR

STARTCHAR char207
ENCODING 207
SWIDTH 9 0
DWIDTH 12 0
BBX 10 17 2 0
BITMAP
3100
4A80
7B80
0000
0000
1FC0
1300
1300
1300
1300
1300
1300
1300
1300
1300
1300
FFC0
ENDCHAR

STARTCHAR char209
ENCODING 209
SWIDTH 44 0
DWIDTH 19 0
BBX 18 17 3 0
BITMAP
038400
066C00
09DC00
083000
000000
3F0380
118100
1CC100
127100
111900
108D00
104700
102300
101100
100900
180500
FE0300
ENDCHAR

STARTCHAR char210
ENCODING 210
SWIDTH 49 0
DWIDTH 20 0
BBX 17 17 4 0
BITMAP
038000
038000
008000
008000
000000
1FFC00
241200
4C1100
8C1180
8C1180
8C0980
8C0980
8C0980
4C0980
240B00
1E1600
0FF800
ENDCHAR

STARTCHAR char211
ENCODING 211
SWIDTH 49 0
DWIDTH 20 0
BBX 17 17 4 0
BITMAP
006000
00E000
008000
008000
000000
1FFC00
241200
4C1100
8C1180
8C1180
8C0980
8C0980
8C0980
4C0980
240B00
1E1600
0FF800
ENDCHAR

STARTCHAR char212
ENCODING 212
SWIDTH 49 0
DWIDTH 20 0
BBX 17 17 4 0
BITMAP
00E000
01A000
029000
027800
000000
1FFC00
241200
4C1100
8C1180
8C1180
8C0980
8C0980
8C0980
4C0980
240B00
1E1600
0FF800
ENDCHAR

STARTCHAR char213
ENCODING 213
SWIDTH 49 0
DWIDTH 20 0
BBX 17 17 4 0
BITMAP
038400
06E800
09BC00
087000
000000
1FFC00
241200
4C1100
8C1180
8C1180
8C0980
8C0980
8C0980
4C0980
240B00
1E1600
0FF800
ENDCHAR

STARTCHAR char214
ENCODING 214
SWIDTH 49 0
DWIDTH 20 0
BBX 17 18 4 -1
BITMAP
022000
055000
077000
000000
000000
1FFC00
241200
4C0900
4C0980
8C0980
8C0980
8C0980
8C0980
4C0980
640B00
141600
0E2C00
03F000
ENDCHAR

STARTCHAR char216
ENCODING 216
SWIDTH 49 0
DWIDTH 20 0
BBX 17 14 4 -1
BITMAP
000200
1FFC00
241200
4C1300
4C2980
884980
888980
890980
8E0980
4C0980
241300
242600
5FF800
400000
ENDCHAR

STARTCHAR char217
ENCODING 217
SWIDTH 44 0
DWIDTH 19 0
BBX 16 17 3 0
BITMAP
0380
0180
0080
0040
0000
FFCF
2206
2202
2202
2202
2202
2202
2202
2202
2202
1B0C
07F0
ENDCHAR

STARTCHAR char218
ENCODING 218
SWIDTH 44 0
DWIDTH 19 0
BBX 16 17 3 0
BITMAP
0070
0060
00C0
0080
0000
FFCF
2206
2202
2202
2202
2202
2202
2202
2202
2202
1B0C
07F0
ENDCHAR

STARTCHAR char219
ENCODING 219
SWIDTH 44 0
DWIDTH 19 0
BBX 16 17 3 0
BITMAP
00E0
01A0
0150
0270
0000
FFCF
2206
2202
2202
2202
2202
2202
2202
2202
2202
1B0C
07F0
ENDCHAR

STARTCHAR char220
ENCODING 220
SWIDTH 44 0
DWIDTH 19 0
BBX 16 17 3 0
BITMAP
039C
02A4
01BC
0000
0000
FFCF
2202
2202
2202
2202
2202
2202
2202
2202
2202
1B0E
07F0
ENDCHAR

STARTCHAR char223
ENCODING 223
SWIDTH 34 0
DWIDTH 27 0
BBX 27 11 2 0
BITMAP
1E107880
61F18780
C0330080
B013C080
9FC27F00
40710180
3C10F040
43C90F40
40290140
F83BE0C0
47E11F80
ENDCHAR

STARTCHAR char224
ENCODING 224
SWIDTH 29 0
DWIDTH 16 0
BBX 16 14 2 0
BITMAP
0300
0100
0080
0080
0180
0280
02C0
0640
0920
0930
0F90
1058
3048
FCFF
ENDCHAR

STARTCHAR char225
ENCODING 225
SWIDTH 29 0
DWIDTH 16 0
BBX 16 14 2 0
BITMAP
00C0
0080
0100
0080
0180
0280
02C0
0640
0920
0930
0F90
1058
3048
FCFF
ENDCHAR

STARTCHAR char226
ENCODING 226
SWIDTH 29 0
DWIDTH 16 0
BBX 16 14 2 0
BITMAP
01C0
02C0
02E0
0080
0180
0280
02C0
0640
0920
0930
0F90
1058
3048
FCFF
ENDCHAR

STARTCHAR char227
ENCODING 227
SWIDTH 29 0
DWIDTH 16 0
BBX 16 14 2 0
BITMAP
0708
0FF0
08E0
0100
0180
0280
02C0
0640
0920
0930
1F90
1098
7048
FCFF
ENDCHAR

STARTCHAR char228
ENCODING 228
SWIDTH 29 0
DWIDTH 16 0
BBX 15 14 2 0
BITMAP
06E0
06A0
0660
0080
0180
0280
02C0
0640
0960
0930
1F90
1098
3048
F9FE
ENDCHAR

STARTCHAR char229
ENCODING 229
SWIDTH 29 0
DWIDTH 16 0
BBX 16 14 2 0
BITMAP
0380
0240
0180
0080
0180
0280
02C0
0640
0920
0930
0F90
1098
3048
FDFF
ENDCHAR

STARTCHAR char230
ENCODING 230
SWIDTH 13 0
DWIDTH 23 0
BBX 21 10 3 0
BITMAP
007FF8
00E418
01A448
0324C0
062740
0424C0
0FE448
102418
102428
78FFF8
ENDCHAR

STARTCHAR char231
ENCODING 231
SWIDTH 19 0
DWIDTH 14 0
BBX 12 15 3 -4
BITMAP
0FB0
3850
4870
9010
9010
9000
9000
9010
5010
2BE0
1F80
0700
0500
0300
0200
ENDCHAR

STARTCHAR char232
ENCODING 232
SWIDTH 24 0
DWIDTH 15 0
BBX 13 14 3 0
BITMAP
0E00
0600
0200
0000
3FF8
2438
2488
2580
2680
2580
2488
2418
2428
7FF8
ENDCHAR

STARTCHAR char233
ENCODING 233
SWIDTH 24 0
DWIDTH 15 0
BBX 13 14 3 0
BITMAP
0380
0300
0200
0000
3FF8
2438
2488
2580
2680
2580
2488
2418
2428
7FF8
ENDCHAR

STARTCHAR char234
ENCODING 234
SWIDTH 24 0
DWIDTH 15 0
BBX 13 14 3 0
BITMAP
0300
0680
0980
0000
FFF8
2438
2488
2580
2680
2580
2488
2418
2428
7FF8
ENDCHAR

STARTCHAR char235
ENCODING 235
SWIDTH 24 0
DWIDTH 15 0
BBX 13 14 3 0
BITMAP
0DC0
1FC0
0480
0000
FFF8
2438
2448
24C0
2740
24C0
2448
2418
2428
7FF8
ENDCHAR

STARTCHAR char236
ENCODING 236
SWIDTH 50 0
DWIDTH 10 0
BBX 8 14 2 0
BITMAP
30
18
08
00
FF
24
24
24
24
24
24
24
24
7E
ENDCHAR

STARTCHAR char237
ENCODING 237
SWIDTH 50 0
DWIDTH 10 0
BBX 8 14 2 0
BITMAP
18
30
20
00
FF
24
24
24
24
24
24
24
24
7E
ENDCHAR

STARTCHAR char238
ENCODING 238
SWIDTH 50 0
DWIDTH 10 0
BBX 8 14 2 0
BITMAP
1C
2C
4E
00
FF
24
24
24
24
24
24
24
24
7E
ENDCHAR

STARTCHAR char239
ENCODING 239
SWIDTH 50 0
DWIDTH 10 0
BBX 8 14 2 0
BITMAP
6E
EE
44
00
FF
2C
2C
2C
2C
2C
2C
2C
2C
7E
ENDCHAR

STARTCHAR char241
ENCODING 241
SWIDTH 29 0
DWIDTH 16 0
BBX 15 14 3 0
BITMAP
0F10
1FA0
10C0
0000
7C1E
2308
3988
24C8
2268
2138
2098
2048
2038
F808
ENDCHAR

STARTCHAR char242
ENCODING 242
SWIDTH 29 0
DWIDTH 16 0
BBX 14 14 3 0
BITMAP
0600
0300
0100
0000
3FF0
2448
482C
8824
8824
8824
8824
444C
3458
0FE0
ENDCHAR

STARTCHAR char243
ENCODING 243
SWIDTH 29 0
DWIDTH 16 0
BBX 14 14 3 0
BITMAP
01C0
0100
0100
0000
3FF0
2448
482C
8824
8824
8824
8824
444C
3458
0FE0
ENDCHAR

STARTCHAR char244
ENCODING 244
SWIDTH 29 0
DWIDTH 16 0
BBX 14 14 3 0
BITMAP
0380
0540
04E0
0000
3FF0
2448
482C
8824
8824
8824
8824
444C
3458
0FE0
ENDCHAR

STARTCHAR char245
ENCODING 245
SWIDTH 29 0
DWIDTH 16 0
BBX 14 14 3 0
BITMAP
0710
0FA0
10C0
0000
3FF0
4448
482C
8824
8824
8824
8824
444C
3458
0FE0
ENDCHAR

STARTCHAR char246
ENCODING 246
SWIDTH 29 0
DWIDTH 16 0
BBX 14 14 3 0
BITMAP
06C0
0EE0
0440
0000
3FF0
4848
482C
9824
9824
9824
8824
484C
3C58
0FE0
ENDCHAR

STARTCHAR char247
ENCODING 247
SWIDTH 24 0
DWIDTH 15 0
BBX 14 10 3 2
BITMAP
0700
0700
0700
0000
FFFC
0000
0000
0700
0700
0700
ENDCHAR

STARTCHAR char248
ENCODING 248
SWIDTH 29 0
DWIDTH 16 0
BBX 14 11 3 -1
BITMAP
3FF0
4848
486C
88A4
8924
8A24
4C24
484C
2458
DFE0
4000
ENDCHAR

STARTCHAR char249
ENCODING 249
SWIDTH 29 0
DWIDTH 16 0
BBX 14 14 3 0
BITMAP
0600
0200
0100
0000
FF7C
2810
2810
2810
2810
2810
2810
2810
2C30
1FC0
ENDCHAR

STARTCHAR char250
ENCODING 250
SWIDTH 29 0
DWIDTH 16 0
BBX 14 14 3 0
BITMAP
0180
0100
0200
0000
FF7C
2810
2810
2810
2810
2810
2810
2810
2C30
1FC0
ENDCHAR

STARTCHAR char251
ENCODING 251
SWIDTH 29 0
DWIDTH 16 0
BBX 14 14 3 0
BITMAP
0380
0580
09C0
0000
FF7C
2810
2810
2810
2810
2810
2810
2810
2C30
1FC0
ENDCHAR

STARTCHAR char252
ENCODING 252
SWIDTH 29 0
DWIDTH 16 0
BBX 14 14 3 0
BITMAP
06E0
0EA0
0440
0000
FF7C
2C10
2C10
2C10
2C10
2C10
2C10
2C10
2430
1FC0
ENDCHAR

STARTCHAR char255
ENCODING 255
SWIDTH 29 0
DWIDTH 16 0
BBX 15 14 2 0
BITMAP
06E0
06E0
0240
0000
FF1C
1208
0B10
09A0
04A0
02C0
02C0
02C0
02C0
0FF0
ENDCHAR
ENDFONT
